<mxfile host="app.diagrams.net" agent="Mozilla/5.0 (Windows NT 10.0; Win64; x64) AppleWebKit/537.36 (KHTML, like Gecko) Chrome/136.0.0.0 Safari/537.36 Edg/136.0.0.0" version="27.0.3">
  <diagram name="Trang-1" id="4BKxhR3NFbtE3IfV_EZ3">
    <mxGraphModel dx="1227" dy="606" grid="1" gridSize="10" guides="1" tooltips="1" connect="1" arrows="1" fold="1" page="1" pageScale="1" pageWidth="827" pageHeight="1169" math="0" shadow="0">
      <root>
        <mxCell id="0" />
        <mxCell id="1" parent="0" />
        <mxCell id="-bvlHswhVJAeka2cfpWW-1" value="Staff" style="shape=umlActor;verticalLabelPosition=bottom;verticalAlign=top;html=1;outlineConnect=0;" vertex="1" parent="1">
          <mxGeometry x="70" y="170" width="60" height="90" as="geometry" />
        </mxCell>
        <mxCell id="-bvlHswhVJAeka2cfpWW-2" value="Customers" style="shape=umlActor;verticalLabelPosition=bottom;verticalAlign=top;html=1;outlineConnect=0;" vertex="1" parent="1">
          <mxGeometry x="70" y="320" width="60" height="90" as="geometry" />
        </mxCell>
        <mxCell id="-bvlHswhVJAeka2cfpWW-9" style="edgeStyle=orthogonalEdgeStyle;rounded=0;orthogonalLoop=1;jettySize=auto;html=1;entryX=0;entryY=0.5;entryDx=0;entryDy=0;" edge="1" parent="1" source="-bvlHswhVJAeka2cfpWW-6" target="-bvlHswhVJAeka2cfpWW-7">
          <mxGeometry relative="1" as="geometry" />
        </mxCell>
        <mxCell id="-bvlHswhVJAeka2cfpWW-6" value="" style="strokeWidth=2;html=1;shape=mxgraph.flowchart.annotation_2;align=left;labelPosition=right;pointerEvents=1;rotation=-180;" vertex="1" parent="1">
          <mxGeometry x="140" y="260" width="50" height="100" as="geometry" />
        </mxCell>
        <mxCell id="-bvlHswhVJAeka2cfpWW-14" style="edgeStyle=orthogonalEdgeStyle;rounded=0;orthogonalLoop=1;jettySize=auto;html=1;entryX=0;entryY=0.5;entryDx=0;entryDy=0;" edge="1" parent="1" source="-bvlHswhVJAeka2cfpWW-7" target="-bvlHswhVJAeka2cfpWW-10">
          <mxGeometry relative="1" as="geometry" />
        </mxCell>
        <mxCell id="-bvlHswhVJAeka2cfpWW-7" value="System" style="ellipse;whiteSpace=wrap;html=1;" vertex="1" parent="1">
          <mxGeometry x="354" y="270" width="120" height="80" as="geometry" />
        </mxCell>
        <mxCell id="-bvlHswhVJAeka2cfpWW-17" style="edgeStyle=orthogonalEdgeStyle;rounded=0;orthogonalLoop=1;jettySize=auto;html=1;entryX=0.387;entryY=0.99;entryDx=0;entryDy=0;entryPerimeter=0;" edge="1" parent="1" source="-bvlHswhVJAeka2cfpWW-10" target="-bvlHswhVJAeka2cfpWW-7">
          <mxGeometry relative="1" as="geometry">
            <mxPoint x="410" y="360" as="targetPoint" />
            <Array as="points">
              <mxPoint x="690" y="480" />
              <mxPoint x="400" y="480" />
            </Array>
          </mxGeometry>
        </mxCell>
        <mxCell id="-bvlHswhVJAeka2cfpWW-10" value="Database" style="shape=cylinder;whiteSpace=wrap;html=1;" vertex="1" parent="1">
          <mxGeometry x="630" y="270" width="120" height="80" as="geometry" />
        </mxCell>
        <mxCell id="-bvlHswhVJAeka2cfpWW-11" value="1" style="text;html=1;align=center;verticalAlign=middle;resizable=0;points=[];autosize=1;strokeColor=none;fillColor=none;" vertex="1" parent="1">
          <mxGeometry x="185" y="278" width="30" height="30" as="geometry" />
        </mxCell>
        <mxCell id="-bvlHswhVJAeka2cfpWW-12" value="Gửi yêu cầu" style="text;html=1;align=center;verticalAlign=middle;resizable=0;points=[];autosize=1;strokeColor=none;fillColor=none;" vertex="1" parent="1">
          <mxGeometry x="215" y="278" width="90" height="30" as="geometry" />
        </mxCell>
        <mxCell id="-bvlHswhVJAeka2cfpWW-13" value="" style="endArrow=classic;html=1;rounded=0;exitX=0.504;exitY=0.053;exitDx=0;exitDy=0;exitPerimeter=0;" edge="1" parent="1">
          <mxGeometry width="50" height="50" relative="1" as="geometry">
            <mxPoint x="222.3599999999999" y="279.59000000000003" as="sourcePoint" />
            <mxPoint x="292" y="280" as="targetPoint" />
          </mxGeometry>
        </mxCell>
        <mxCell id="-bvlHswhVJAeka2cfpWW-15" value="2" style="text;html=1;align=center;verticalAlign=middle;resizable=0;points=[];autosize=1;strokeColor=none;fillColor=none;" vertex="1" parent="1">
          <mxGeometry x="474" y="280" width="30" height="30" as="geometry" />
        </mxCell>
        <mxCell id="-bvlHswhVJAeka2cfpWW-16" value="Xử lí đơn hàng" style="text;html=1;align=center;verticalAlign=middle;resizable=0;points=[];autosize=1;strokeColor=none;fillColor=none;" vertex="1" parent="1">
          <mxGeometry x="500" y="280" width="100" height="30" as="geometry" />
        </mxCell>
        <mxCell id="-bvlHswhVJAeka2cfpWW-18" value="3" style="text;html=1;align=center;verticalAlign=middle;resizable=0;points=[];autosize=1;strokeColor=none;fillColor=none;" vertex="1" parent="1">
          <mxGeometry x="695" y="348" width="30" height="30" as="geometry" />
        </mxCell>
        <mxCell id="-bvlHswhVJAeka2cfpWW-19" value="Xác nhận thay đổi" style="text;html=1;align=center;verticalAlign=middle;resizable=0;points=[];autosize=1;strokeColor=none;fillColor=none;" vertex="1" parent="1">
          <mxGeometry x="460" y="448" width="120" height="30" as="geometry" />
        </mxCell>
        <mxCell id="-bvlHswhVJAeka2cfpWW-20" value="" style="endArrow=classic;html=1;rounded=0;" edge="1" parent="1">
          <mxGeometry width="50" height="50" relative="1" as="geometry">
            <mxPoint x="700" y="430" as="sourcePoint" />
            <mxPoint x="700" y="480" as="targetPoint" />
          </mxGeometry>
        </mxCell>
        <mxCell id="-bvlHswhVJAeka2cfpWW-21" value="" style="endArrow=classic;html=1;rounded=0;" edge="1" parent="1">
          <mxGeometry width="50" height="50" relative="1" as="geometry">
            <mxPoint x="545" y="448" as="sourcePoint" />
            <mxPoint x="495" y="448" as="targetPoint" />
          </mxGeometry>
        </mxCell>
        <mxCell id="-bvlHswhVJAeka2cfpWW-22" value="" style="endArrow=classic;html=1;rounded=0;" edge="1" parent="1">
          <mxGeometry width="50" height="50" relative="1" as="geometry">
            <mxPoint x="413" y="440" as="sourcePoint" />
            <mxPoint x="413" y="400" as="targetPoint" />
          </mxGeometry>
        </mxCell>
        <mxCell id="-bvlHswhVJAeka2cfpWW-23" style="edgeStyle=orthogonalEdgeStyle;rounded=0;orthogonalLoop=1;jettySize=auto;html=1;entryX=0.5;entryY=1;entryDx=0;entryDy=0;entryPerimeter=0;" edge="1" parent="1" source="-bvlHswhVJAeka2cfpWW-7" target="-bvlHswhVJAeka2cfpWW-6">
          <mxGeometry relative="1" as="geometry">
            <Array as="points">
              <mxPoint x="410" y="160" />
              <mxPoint x="165" y="160" />
            </Array>
          </mxGeometry>
        </mxCell>
        <mxCell id="-bvlHswhVJAeka2cfpWW-24" value="4" style="text;html=1;align=center;verticalAlign=middle;resizable=0;points=[];autosize=1;strokeColor=none;fillColor=none;" vertex="1" parent="1">
          <mxGeometry x="385" y="238" width="30" height="30" as="geometry" />
        </mxCell>
        <mxCell id="-bvlHswhVJAeka2cfpWW-25" value="Thông báo kết quả" style="text;html=1;align=center;verticalAlign=middle;resizable=0;points=[];autosize=1;strokeColor=none;fillColor=none;" vertex="1" parent="1">
          <mxGeometry x="200" y="128" width="120" height="30" as="geometry" />
        </mxCell>
        <mxCell id="-bvlHswhVJAeka2cfpWW-26" value="" style="endArrow=classic;html=1;rounded=0;" edge="1" parent="1">
          <mxGeometry width="50" height="50" relative="1" as="geometry">
            <mxPoint x="285" y="128" as="sourcePoint" />
            <mxPoint x="215" y="128" as="targetPoint" />
          </mxGeometry>
        </mxCell>
      </root>
    </mxGraphModel>
  </diagram>
</mxfile>
